<svg xmlns="http://www.w3.org/2000/svg" width="900" height="470" viewBox="0 0 900 470" role="img" aria-label="Memory per concurrent request — cgroup basis (all processes of each clone)">
<style>
  .s{fill:var(--surface)} .ink{fill:var(--ink)} .ink2{fill:var(--ink2)}
  .grid{stroke:var(--grid);stroke-width:1}
  .ax{stroke:var(--ink2);stroke-width:1}
  text{font-family:ui-sans-serif,-apple-system,"Segoe UI",Roboto,sans-serif}
  .t{font-size:15px;font-weight:600} .st{font-size:11.5px}
  .lbl{font-size:11px} .val{font-size:11px;font-weight:600}
  .whisk{stroke:var(--ink);stroke-width:1.5;opacity:.75}
  svg{--surface:#fcfcfb;--ink:#0b0b0b;--ink2:#52514e;--grid:#e3e2df}
  svg{--c0:#2a78d6}
  svg{--c1:#eb6834}
  svg{--c2:#1baf7a}
  svg{--c3:#eda100}
  svg{--c4:#e87ba4}
  svg{--c5:#008300}
  svg{--c6:#4a3aa7}
  svg{--neutral:#6e6d67;--neutral-ink:#ffffff}

  @media (prefers-color-scheme:dark){svg:where(:not([data-theme="light"])){--surface:#1a1a19;--ink:#ffffff;--ink2:#c3c2b7;--grid:#333331;--c0:#3987e5;--c1:#d95926;--c2:#199e70;--c3:#c98500;--c4:#d55181;--c5:#008300;--c6:#9085e9;--neutral:#a4a39b;--neutral-ink:#0b0b0b;}}
  svg[data-theme="dark"]{--surface:#1a1a19;--ink:#ffffff;--ink2:#c3c2b7;--grid:#333331;--c0:#3987e5;--c1:#d95926;--c2:#199e70;--c3:#c98500;--c4:#d55181;--c5:#008300;--c6:#9085e9;--neutral:#a4a39b;--neutral-ink:#0b0b0b;}
</style>
<rect class="s" width="900" height="470"/>
<text class="t ink" x="16" y="26">Memory per concurrent request — cgroup basis (all processes of each clone)</text>
<text class="st ink2" x="16" y="44">points = measured cells; dashed = OLS fit, drawn WITH its intercept</text>
<line class="grid" x1="74" y1="418.0" x2="732" y2="418.0"/>
<text class="lbl ink2" x="66" y="422.0" text-anchor="end">0</text>
<line class="grid" x1="74" y1="348.4" x2="732" y2="348.4"/>
<text class="lbl ink2" x="66" y="352.4" text-anchor="end">1000</text>
<line class="grid" x1="74" y1="278.8" x2="732" y2="278.8"/>
<text class="lbl ink2" x="66" y="282.8" text-anchor="end">2000</text>
<line class="grid" x1="74" y1="209.2" x2="732" y2="209.2"/>
<text class="lbl ink2" x="66" y="213.2" text-anchor="end">3000</text>
<line class="grid" x1="74" y1="139.6" x2="732" y2="139.6"/>
<text class="lbl ink2" x="66" y="143.6" text-anchor="end">4000</text>
<line class="grid" x1="74" y1="70.0" x2="732" y2="70.0"/>
<text class="lbl ink2" x="66" y="74.0" text-anchor="end">5000</text>
<text class="lbl ink2" x="74.0" y="436" text-anchor="middle">0</text>
<text class="lbl ink2" x="156.2" y="436" text-anchor="middle">2</text>
<text class="lbl ink2" x="238.5" y="436" text-anchor="middle">4</text>
<text class="lbl ink2" x="320.8" y="436" text-anchor="middle">6</text>
<text class="lbl ink2" x="403.0" y="436" text-anchor="middle">8</text>
<text class="lbl ink2" x="485.2" y="436" text-anchor="middle">10</text>
<text class="lbl ink2" x="567.5" y="436" text-anchor="middle">12</text>
<text class="lbl ink2" x="649.8" y="436" text-anchor="middle">14</text>
<text class="lbl ink2" x="732.0" y="436" text-anchor="middle">16</text>
<text class="lbl ink2" x="403" y="456" text-anchor="middle">concurrent shared-nothing requests (N)</text>
<text class="lbl ink2" x="16" y="58">MiB</text>
<line x1="74.0" y1="416.8" x2="732.0" y2="256.9" stroke="var(--c0)" stroke-width="2" opacity=".55" stroke-dasharray="5 4"/>
<circle cx="115.1" cy="407.5" r="4.5" fill="var(--c0)" stroke="var(--surface)" stroke-width="2"/>
<circle cx="115.1" cy="407.2" r="4.5" fill="var(--c0)" stroke="var(--surface)" stroke-width="2"/>
<circle cx="115.1" cy="407.0" r="4.5" fill="var(--c0)" stroke="var(--surface)" stroke-width="2"/>
<circle cx="156.2" cy="397.2" r="4.5" fill="var(--c0)" stroke="var(--surface)" stroke-width="2"/>
<circle cx="156.2" cy="396.8" r="4.5" fill="var(--c0)" stroke="var(--surface)" stroke-width="2"/>
<circle cx="156.2" cy="396.8" r="4.5" fill="var(--c0)" stroke="var(--surface)" stroke-width="2"/>
<circle cx="238.5" cy="376.9" r="4.5" fill="var(--c0)" stroke="var(--surface)" stroke-width="2"/>
<circle cx="238.5" cy="376.7" r="4.5" fill="var(--c0)" stroke="var(--surface)" stroke-width="2"/>
<circle cx="238.5" cy="376.7" r="4.5" fill="var(--c0)" stroke="var(--surface)" stroke-width="2"/>
<circle cx="403.0" cy="336.2" r="4.5" fill="var(--c0)" stroke="var(--surface)" stroke-width="2"/>
<circle cx="403.0" cy="336.0" r="4.5" fill="var(--c0)" stroke="var(--surface)" stroke-width="2"/>
<circle cx="403.0" cy="335.9" r="4.5" fill="var(--c0)" stroke="var(--surface)" stroke-width="2"/>
<circle cx="732.0" cy="258.3" r="4.5" fill="var(--c0)" stroke="var(--surface)" stroke-width="2"/>
<circle cx="732.0" cy="256.9" r="4.5" fill="var(--c0)" stroke="var(--surface)" stroke-width="2"/>
<circle cx="732.0" cy="256.9" r="4.5" fill="var(--c0)" stroke="var(--surface)" stroke-width="2"/>
<line x1="74.0" y1="415.9" x2="732.0" y2="128.8" stroke="var(--c1)" stroke-width="2" opacity=".55" stroke-dasharray="5 4"/>
<circle cx="115.1" cy="399.2" r="4.5" fill="var(--c1)" stroke="var(--surface)" stroke-width="2"/>
<circle cx="115.1" cy="398.9" r="4.5" fill="var(--c1)" stroke="var(--surface)" stroke-width="2"/>
<circle cx="115.1" cy="398.8" r="4.5" fill="var(--c1)" stroke="var(--surface)" stroke-width="2"/>
<circle cx="156.2" cy="381.1" r="4.5" fill="var(--c1)" stroke="var(--surface)" stroke-width="2"/>
<circle cx="156.2" cy="381.0" r="4.5" fill="var(--c1)" stroke="var(--surface)" stroke-width="2"/>
<circle cx="156.2" cy="380.9" r="4.5" fill="var(--c1)" stroke="var(--surface)" stroke-width="2"/>
<circle cx="238.5" cy="344.2" r="4.5" fill="var(--c1)" stroke="var(--surface)" stroke-width="2"/>
<circle cx="238.5" cy="343.4" r="4.5" fill="var(--c1)" stroke="var(--surface)" stroke-width="2"/>
<circle cx="238.5" cy="343.0" r="4.5" fill="var(--c1)" stroke="var(--surface)" stroke-width="2"/>
<circle cx="403.0" cy="270.3" r="4.5" fill="var(--c1)" stroke="var(--surface)" stroke-width="2"/>
<circle cx="403.0" cy="269.8" r="4.5" fill="var(--c1)" stroke="var(--surface)" stroke-width="2"/>
<circle cx="403.0" cy="269.4" r="4.5" fill="var(--c1)" stroke="var(--surface)" stroke-width="2"/>
<circle cx="732.0" cy="131.3" r="4.5" fill="var(--c1)" stroke="var(--surface)" stroke-width="2"/>
<circle cx="732.0" cy="129.6" r="4.5" fill="var(--c1)" stroke="var(--surface)" stroke-width="2"/>
<circle cx="732.0" cy="129.3" r="4.5" fill="var(--c1)" stroke="var(--surface)" stroke-width="2"/>
<line x1="74.0" y1="415.6" x2="732.0" y2="268.1" stroke="var(--c2)" stroke-width="2" opacity=".55" stroke-dasharray="5 4"/>
<circle cx="115.1" cy="408.0" r="4.5" fill="var(--c2)" stroke="var(--surface)" stroke-width="2"/>
<circle cx="115.1" cy="407.7" r="4.5" fill="var(--c2)" stroke="var(--surface)" stroke-width="2"/>
<circle cx="115.1" cy="406.0" r="4.5" fill="var(--c2)" stroke="var(--surface)" stroke-width="2"/>
<circle cx="156.2" cy="398.1" r="4.5" fill="var(--c2)" stroke="var(--surface)" stroke-width="2"/>
<circle cx="156.2" cy="397.8" r="4.5" fill="var(--c2)" stroke="var(--surface)" stroke-width="2"/>
<circle cx="156.2" cy="397.3" r="4.5" fill="var(--c2)" stroke="var(--surface)" stroke-width="2"/>
<circle cx="238.5" cy="378.3" r="4.5" fill="var(--c2)" stroke="var(--surface)" stroke-width="2"/>
<circle cx="238.5" cy="377.9" r="4.5" fill="var(--c2)" stroke="var(--surface)" stroke-width="2"/>
<circle cx="238.5" cy="377.8" r="4.5" fill="var(--c2)" stroke="var(--surface)" stroke-width="2"/>
<circle cx="403.0" cy="340.5" r="4.5" fill="var(--c2)" stroke="var(--surface)" stroke-width="2"/>
<circle cx="403.0" cy="340.2" r="4.5" fill="var(--c2)" stroke="var(--surface)" stroke-width="2"/>
<circle cx="403.0" cy="339.5" r="4.5" fill="var(--c2)" stroke="var(--surface)" stroke-width="2"/>
<circle cx="732.0" cy="270.8" r="4.5" fill="var(--c2)" stroke="var(--surface)" stroke-width="2"/>
<circle cx="732.0" cy="268.6" r="4.5" fill="var(--c2)" stroke="var(--surface)" stroke-width="2"/>
<circle cx="732.0" cy="267.5" r="4.5" fill="var(--c2)" stroke="var(--surface)" stroke-width="2"/>
<line x1="74.0" y1="416.7" x2="732.0" y2="378.1" stroke="var(--c3)" stroke-width="2" opacity=".55" stroke-dasharray="5 4"/>
<circle cx="115.1" cy="415.0" r="4.5" fill="var(--c3)" stroke="var(--surface)" stroke-width="2"/>
<circle cx="115.1" cy="414.8" r="4.5" fill="var(--c3)" stroke="var(--surface)" stroke-width="2"/>
<circle cx="115.1" cy="414.8" r="4.5" fill="var(--c3)" stroke="var(--surface)" stroke-width="2"/>
<circle cx="156.2" cy="412.4" r="4.5" fill="var(--c3)" stroke="var(--surface)" stroke-width="2"/>
<circle cx="156.2" cy="412.1" r="4.5" fill="var(--c3)" stroke="var(--surface)" stroke-width="2"/>
<circle cx="156.2" cy="411.9" r="4.5" fill="var(--c3)" stroke="var(--surface)" stroke-width="2"/>
<circle cx="238.5" cy="406.8" r="4.5" fill="var(--c3)" stroke="var(--surface)" stroke-width="2"/>
<circle cx="238.5" cy="406.6" r="4.5" fill="var(--c3)" stroke="var(--surface)" stroke-width="2"/>
<circle cx="238.5" cy="406.4" r="4.5" fill="var(--c3)" stroke="var(--surface)" stroke-width="2"/>
<circle cx="403.0" cy="396.8" r="4.5" fill="var(--c3)" stroke="var(--surface)" stroke-width="2"/>
<circle cx="403.0" cy="396.8" r="4.5" fill="var(--c3)" stroke="var(--surface)" stroke-width="2"/>
<circle cx="403.0" cy="396.5" r="4.5" fill="var(--c3)" stroke="var(--surface)" stroke-width="2"/>
<circle cx="732.0" cy="378.6" r="4.5" fill="var(--c3)" stroke="var(--surface)" stroke-width="2"/>
<circle cx="732.0" cy="378.6" r="4.5" fill="var(--c3)" stroke="var(--surface)" stroke-width="2"/>
<circle cx="732.0" cy="378.4" r="4.5" fill="var(--c3)" stroke="var(--surface)" stroke-width="2"/>
<line x1="74.0" y1="400.6" x2="732.0" y2="226.3" stroke="var(--c6)" stroke-width="2" opacity=".55" stroke-dasharray="5 4"/>
<circle cx="156.2" cy="384.6" r="4.5" fill="var(--c6)" stroke="var(--surface)" stroke-width="2"/>
<circle cx="156.2" cy="384.5" r="4.5" fill="var(--c6)" stroke="var(--surface)" stroke-width="2"/>
<circle cx="156.2" cy="370.1" r="4.5" fill="var(--c6)" stroke="var(--surface)" stroke-width="2"/>
<circle cx="238.5" cy="361.8" r="4.5" fill="var(--c6)" stroke="var(--surface)" stroke-width="2"/>
<circle cx="238.5" cy="361.6" r="4.5" fill="var(--c6)" stroke="var(--surface)" stroke-width="2"/>
<circle cx="238.5" cy="347.6" r="4.5" fill="var(--c6)" stroke="var(--surface)" stroke-width="2"/>
<circle cx="403.0" cy="316.7" r="4.5" fill="var(--c6)" stroke="var(--surface)" stroke-width="2"/>
<circle cx="403.0" cy="316.6" r="4.5" fill="var(--c6)" stroke="var(--surface)" stroke-width="2"/>
<circle cx="403.0" cy="302.4" r="4.5" fill="var(--c6)" stroke="var(--surface)" stroke-width="2"/>
<circle cx="732.0" cy="227.2" r="4.5" fill="var(--c6)" stroke="var(--surface)" stroke-width="2"/>
<circle cx="732.0" cy="227.2" r="4.5" fill="var(--c6)" stroke="var(--surface)" stroke-width="2"/>
<circle cx="732.0" cy="226.6" r="4.5" fill="var(--c6)" stroke="var(--surface)" stroke-width="2"/>
<rect x="746" y="65" width="10" height="10" rx="2" fill="var(--c0)"/>
<text class="lbl ink" x="762" y="74">file-4k</text>
<text class="lbl ink2" x="762" y="90">144 MiB/req + 17</text>
<rect x="746" y="99" width="10" height="10" rx="2" fill="var(--c1)"/>
<text class="lbl ink" x="762" y="108">uffd-4k-copy</text>
<text class="lbl ink2" x="762" y="124">258 MiB/req + 29</text>
<rect x="746" y="133" width="10" height="10" rx="2" fill="var(--c2)"/>
<text class="lbl ink" x="762" y="142">uffd-4k-minor</text>
<text class="lbl ink2" x="762" y="158">132 MiB/req + 35</text>
<rect x="746" y="167" width="10" height="10" rx="2" fill="var(--c3)"/>
<text class="lbl ink" x="762" y="176">uffd-huge-minor</text>
<text class="lbl ink2" x="762" y="192">35 MiB/req + 18</text>
<rect x="746" y="201" width="10" height="10" rx="2" fill="var(--c6)"/>
<text class="lbl ink" x="762" y="210">host container pool</text>
<text class="lbl ink2" x="762" y="226">157 MiB/req + 250</text>
</svg>